<svg id="_022-dribbble" data-name="022-dribbble" xmlns="http://www.w3.org/2000/svg" width="24" height="24" viewBox="0 0 24 24">
  <path id="Path_5" data-name="Path 5" d="M12.047,24a12,12,0,0,0,0-24A12.112,12.112,0,0,0,0,12.047,12.029,12.029,0,0,0,12.047,24Zm-6.17-3.365c.871-3.321,3.976-6.023,7.946-7.219a32.883,32.883,0,0,1,1.68,8.6,10.5,10.5,0,0,1-3.457.582A10.647,10.647,0,0,1,5.877,20.635Zm11,.787A34.046,34.046,0,0,0,15.2,13.069a16.04,16.04,0,0,1,7.316.223A10.57,10.57,0,0,1,16.874,21.422ZM13.921,9.814a12.771,12.771,0,0,0,6.291-4.494,10.645,10.645,0,0,1,2.38,6.538,17.565,17.565,0,0,0-7.869-.13q-.371-.969-.8-1.914Zm5.294-5.564c-1.141,2.065-3.7,3.485-5.907,4.292A30.84,30.84,0,0,0,8.79,1.917a10.6,10.6,0,0,1,3.257-.51A10.458,10.458,0,0,1,19.215,4.249ZM7.4,2.477a29.423,29.423,0,0,1,4.544,6.508,26.477,26.477,0,0,1-10.284.758A10.681,10.681,0,0,1,7.4,2.477ZM1.446,11.135a27.812,27.812,0,0,0,11.122-.868q.413.9.771,1.817c-3.864,1.171-7.364,3.81-8.64,7.585a10.474,10.474,0,0,1-3.293-7.622c0-.307.014-.611.04-.912Zm0,0" fill="#ffbf4e"/>
</svg>
