<svg id="_045-linkedin" data-name="045-linkedin" xmlns="http://www.w3.org/2000/svg" width="24" height="24" viewBox="0 0 24 24">
  <path id="Path_11" data-name="Path 11" d="M20.484,0H3.516A3.52,3.52,0,0,0,0,3.516V20.484A3.52,3.52,0,0,0,3.516,24H20.484A3.52,3.52,0,0,0,24,20.484V3.516A3.52,3.52,0,0,0,20.484,0Zm2.109,20.484a2.112,2.112,0,0,1-2.109,2.109H3.516a2.112,2.112,0,0,1-2.109-2.109V3.516A2.112,2.112,0,0,1,3.516,1.406H20.484a2.112,2.112,0,0,1,2.109,2.109Zm0,0" fill="#ffbf4e"/>
  <path id="Path_12" data-name="Path 12" d="M91,219.938h4.219V210H91Zm1.406-8.531h1.406v7.125H92.406Zm0,0" transform="translate(-86.734 -200.156)" fill="#ffbf4e"/>
  <path id="Path_13" data-name="Path 13" d="M216.629,210h0a4.21,4.21,0,0,0-1.406.239V210H211v9.938h4.219v-5.016a.7.7,0,0,1,1.406,0v5.016h4.219v-5.5A4.419,4.419,0,0,0,216.629,210Zm2.808,8.531h-1.406v-3.609a2.109,2.109,0,0,0-4.219,0v3.61h-1.406v-7.125h1.406v1.407l1.125-.845a2.788,2.788,0,0,1,1.687-.562h0a3.006,3.006,0,0,1,2.81,3.032Zm0,0" transform="translate(-201.109 -200.156)" fill="#ffbf4e"/>
  <path id="Path_14" data-name="Path 14" d="M91,94.219h4.219V90H91Zm1.406-2.812h1.406v1.406H92.406Zm0,0" transform="translate(-86.734 -85.781)" fill="#ffbf4e"/>
</svg>
