<svg xmlns="http://www.w3.org/2000/svg" width="30.81" height="20.82" viewBox="0 0 30.81 20.82">
  <path id="Path_8" data-name="Path 8" d="M10.62-8.43a5.365,5.365,0,0,0,2.76-1.26,5.858,5.858,0,0,0,1.8-4.41,5.906,5.906,0,0,0-1.98-4.5,7.952,7.952,0,0,0-5.1-1.41H2.31V0h3.9V-8.04h.51L12.12,0h4.8ZM6.21-10.8v-6.06h1.2c2.46,0,3.75,1.02,3.75,3S9.81-10.8,7.35-10.8Zm26.22-7.32a8.757,8.757,0,0,0-5.88-2.22c-3.6,0-6.24,2.46-6.24,5.82,0,2.64,1.32,4.08,4.92,5.4a15.229,15.229,0,0,1,2.79,1.2A2.38,2.38,0,0,1,29.1-5.91a2.852,2.852,0,0,1-3.09,2.82,4.646,4.646,0,0,1-4.2-2.67L19.29-3.33A7.816,7.816,0,0,0,26.16.48c4.14,0,6.96-2.67,6.96-6.6a5.264,5.264,0,0,0-1.77-4.2,11.671,11.671,0,0,0-3.99-2.01c-2.34-.87-3.03-1.44-3.03-2.52,0-1.23,1.23-2.22,2.82-2.22a4.033,4.033,0,0,1,3.24,1.62Z" transform="translate(-2.31 20.34)" fill="#ffbf4e"/>
</svg>
